# xmcd CD database file
#
# Track frame offsets:
#	150
#	22482
#	55469
#	68037
#	86552
#	110574
#	125712
#	141644
#	166281
#	178089
#	201902
#	220899
#	238523
#	259458
#
# Disc length: 3770 seconds
#
# Revision: 1
# Processed by: cddbd v1.5.1PL2 Copyright (c) Steve Scherf et al.
# Submitted via: CDex 1.51
#
DISCID=e50eb80e
DTITLE=Various Artist - The Best of Blues
DYEAR=2001
DGENRE=Blues
TTITLE0=The Thrill is Gone
TTITLE1=I'll Play The Blues For You
TTITLE2=Today I Sing The Blues
TTITLE3=Come On In This House
TTITLE4=When My First Wife Quit Me
TTITLE5=Help
TTITLE6=Madison Blues
TTITLE7=Holt That Train
TTITLE8=I'd Rather Go Blind
TTITLE9=Use Me
TTITLE10=You Went Away Baby
TTITLE11=Bertha
TTITLE12=Why You Want To Hurt Me
TTITLE13=Cummins Prison Farm
EXTD=YEAR: 2001
EXTT0=
EXTT1=
EXTT2=
EXTT3=
EXTT4=
EXTT5=
EXTT6=
EXTT7=
EXTT8=
EXTT9=
EXTT10=
EXTT11=
EXTT12=
EXTT13=
PLAYORDER=
